<svg xmlns="http://www.w3.org/2000/svg" xmlns:xlink="http://www.w3.org/1999/xlink" viewBox="0,0,256,256" width="480px" height="480px" fill-rule="nonzero"><defs><linearGradient x1="7.72841" y1="14.49137" x2="43.24207" y2="24.62378" gradientUnits="userSpaceOnUse" id="color-1"><stop offset="0" stop-color="#008b78"></stop><stop offset="0.249" stop-color="#008b78"></stop><stop offset="0.693" stop-color="#f4ea0b"></stop><stop offset="1" stop-color="#f4ea0b"></stop></linearGradient><linearGradient x1="7.68206" y1="14.65383" x2="43.19572" y2="24.78624" gradientUnits="userSpaceOnUse" id="color-2"><stop offset="0" stop-color="#008b78"></stop><stop offset="0.249" stop-color="#008b78"></stop><stop offset="0.693" stop-color="#f4ea0b"></stop><stop offset="1" stop-color="#f4ea0b"></stop></linearGradient><linearGradient x1="7.73768" y1="14.45887" x2="43.25134" y2="24.59129" gradientUnits="userSpaceOnUse" id="color-3"><stop offset="0" stop-color="#008b78"></stop><stop offset="0.249" stop-color="#008b78"></stop><stop offset="0.693" stop-color="#f4ea0b"></stop><stop offset="1" stop-color="#f4ea0b"></stop></linearGradient></defs><g transform=""><g fill="none" fill-rule="nonzero" stroke="none" stroke-width="1" stroke-linecap="butt" stroke-linejoin="miter" stroke-miterlimit="10" stroke-dasharray="" stroke-dashoffset="0" font-family="none" font-weight="none" font-size="none" text-anchor="none" style="mix-blend-mode: normal"><g transform="translate(10.6642,16.00111) scale(5.33333,5.33333)"><path d="M30.583,28.614l-0.619,0.012v0.005l0.619,-0.012z" fill="#f4ea0b"></path><path d="M30.471,23.56l-0.515,0.01v0.006l0.515,-0.01z" fill="#f4ea0b"></path><path d="M30.116,7.505c0,-0.051 -0.043,-0.092 -0.092,-0.092c-0.055,0 -0.094,0.042 -0.094,0.094l0.015,9.318l0.377,-0.007z" fill="#008b78"></path><path d="M30.359,18.504l-0.411,0.008v0.002l0.411,-0.008z" fill="#f4ea0b"></path><path d="M30.396,20.192l-0.446,0.008v0.003l0.446,-0.009z" fill="#f4ea0b"></path><path d="M29.981,39.336v0.01c0.002,0.232 0.199,0.416 0.427,0.41c0.233,-0.004 0.418,-0.196 0.412,-0.429l-0.2,-9.022l-0.654,0.012z" fill="#f4ea0b"></path><path d="M30.62,30.305l-0.037,-1.686l-0.619,0.012l0.002,1.686z" fill="#f4ea0b"></path><path d="M30.545,26.929l-0.584,0.011l0.003,1.686l0.619,-0.012z" fill="#e1e214"></path><path d="M30.508,25.252l-0.55,0.01l0.003,1.678l0.584,-0.011z" fill="#ccdb1d"></path><path d="M29.961,26.94v0l0.584,-0.011v0z" fill="#ccdb1d"></path><path d="M30.508,25.243l-0.037,-1.677l-0.515,0.01l0.002,1.678z" fill="#a5cb2e"></path><path d="M30.508,25.243l-0.55,0.011v0.008l0.55,-0.01z" fill="#a5cb2e"></path><path d="M30.434,21.88l-0.481,0.009l0.003,1.681l0.515,-0.01z" fill="#86bf3c"></path><path d="M30.434,21.875l-0.038,-1.681l-0.446,0.009l0.003,1.681z" fill="#62b14c"></path><path d="M29.953,21.884v0.005l0.481,-0.009v-0.005z" fill="#62b14c"></path><path d="M30.359,18.506l-0.411,0.008l0.002,1.686l0.446,-0.008z" fill="#43a55a"></path><path d="M30.322,16.818l-0.377,0.007l0.003,1.687l0.411,-0.008z" fill="#008b78"></path><g><path d="M32.422,32.239l-1.018,0.061v0.006l1.018,-0.061z" fill="#f4ea0b"></path><path d="M31.675,22.804l-0.718,0.043v0.002l0.718,-0.043z" fill="#f4ea0b"></path><path d="M30.374,6.355c-0.004,-0.052 -0.048,-0.091 -0.099,-0.091c-0.001,0 -0.002,0 -0.003,0c-0.056,0.002 -0.096,0.049 -0.092,0.103l0.599,12.692l0.598,-0.036z" fill="#008b78"></path><path d="M31.974,26.577l-0.838,0.051v0.006l0.838,-0.05z" fill="#f4ea0b"></path><path d="M31.526,20.913l-0.658,0.039v0.003l0.658,-0.04z" fill="#f4ea0b"></path><path d="M31.972,44.336c0.003,0.006 0.003,0.016 0.003,0.023c0.033,0.384 0.373,0.671 0.758,0.638c0.387,-0.034 0.672,-0.373 0.638,-0.761l-0.8,-10.104l-1.079,0.065z" fill="#f4ea0b"></path><path d="M32.572,34.133l-0.15,-1.888l-1.018,0.061l0.089,1.892z" fill="#f4ea0b"></path><path d="M32.273,30.351l-0.959,0.058l0.09,1.891l1.018,-0.061z" fill="#e1e214"></path><path d="M32.124,28.472l-0.899,0.054l0.089,1.882l0.959,-0.057z" fill="#ccdb1d"></path><path d="M31.314,30.408v0.001l0.959,-0.058v0z" fill="#ccdb1d"></path><path d="M32.123,28.463l-0.149,-1.879l-0.838,0.05l0.089,1.883z" fill="#a5cb2e"></path><path d="M32.123,28.463l-0.898,0.054v0.009l0.899,-0.054z" fill="#a5cb2e"></path><path d="M31.825,24.695l-0.778,0.046l0.089,1.887l0.838,-0.051z" fill="#86bf3c"></path><path d="M31.825,24.689l-0.15,-1.883l-0.718,0.043l0.089,1.887z" fill="#62b14c"></path><path d="M31.046,24.736l0.001,0.005l0.778,-0.046v-0.006z" fill="#62b14c"></path><path d="M31.526,20.915l-0.658,0.04l0.089,1.892l0.718,-0.043z" fill="#43a55a"></path><path d="M31.376,19.024l-0.597,0.036l0.089,1.892l0.658,-0.039z" fill="#008b78"></path></g><g><path d="M17.429,16.43l-0.265,0.842l0.007,0.002l0.265,-0.842z" fill="url(#color-1)"></path><path d="M41.582,25.366c0.028,0.011 0.062,0.02 0.087,0.027c0.722,0.185 1.455,-0.251 1.64,-0.971c0.18,-0.717 -0.252,-1.45 -0.973,-1.634l-6.905,-1.762l-0.657,2.084z" fill="url(#color-2)"></path><path d="M7.826,13.979c-0.006,-0.002 -0.014,-0.002 -0.022,-0.002c-0.038,0 -0.076,0.026 -0.088,0.066c-0.016,0.046 0.011,0.1 0.06,0.116l6.866,2.276l0.209,-0.663z" fill="url(#color-3)"></path><path d="M32.268,22.278l2.505,0.831l0.658,-2.084l-2.562,-0.654z" fill="#f4ea0b"></path><path d="M30.308,19.717l-0.546,1.731l2.489,0.825l0.602,-1.906z" fill="#e1e214"></path><path d="M32.853,20.367l-0.602,1.906l0.017,0.005l0.601,-1.907z" fill="#e1e214"></path><path d="M27.734,19.061l-0.489,1.552l2.501,0.829l0.545,-1.729z" fill="#ccdb1d"></path><path d="M30.291,19.713l-0.545,1.729l0.016,0.006l0.546,-1.731z" fill="#ccdb1d"></path><path d="M25.161,18.404l-0.434,1.375l2.513,0.833l0.49,-1.553z" fill="#a5cb2e"></path><path d="M27.73,19.059l-0.49,1.553l0.005,0.001l0.489,-1.552z" fill="#a5cb2e"></path><path d="M22.587,17.747l-0.377,1.197l2.513,0.833l0.433,-1.374z" fill="#86bf3c"></path><path d="M25.156,18.403l-0.433,1.374l0.004,0.002l0.434,-1.375z" fill="#86bf3c"></path><path d="M20.014,17.09l-0.322,1.02l2.513,0.833l0.378,-1.197z" fill="#62b14c"></path><path d="M22.583,17.746l-0.378,1.197l0.005,0.001l0.377,-1.197z" fill="#62b14c"></path><path d="M20.009,17.089l-2.573,-0.657l-0.265,0.842l2.517,0.834z" fill="#43a55a"></path><path d="M20.009,17.089l-0.321,1.019l0.004,0.002l0.322,-1.02z" fill="#43a55a"></path><path d="M14.851,15.772l-0.209,0.664l2.522,0.836l0.265,-0.842z" fill="#008b78"></path></g><g><path d="M19.35,16.292l-0.07,0.279h0.003l0.07,-0.279z" fill="#f4ea0b"></path><path d="M21.207,16.682l-0.079,0.316l0.003,0.001l0.079,-0.316z" fill="#f4ea0b"></path><path d="M7.888,13.879c-0.001,-0.001 -0.003,-0.001 -0.005,-0.001c-0.011,0 -0.023,0.01 -0.026,0.021c-0.002,0.014 0.006,0.03 0.021,0.034l9.557,2.211l0.061,-0.243z" fill="#008b78"></path><path d="M30.474,18.633l-0.125,0.498l0.006,0.002l0.125,-0.499z" fill="#f4ea0b"></path><path d="M24.914,17.463l-0.098,0.388l0.007,0.002l0.097,-0.389z" fill="#f4ea0b"></path><path d="M38.157,20.937l0.004,0.001c0.183,0.037 0.361,-0.081 0.397,-0.264c0.036,-0.18 -0.081,-0.357 -0.265,-0.396l-5.959,-1.254l-0.134,0.535z" fill="#f4ea0b"></path><path d="M32.335,19.025l-1.855,-0.391l-0.125,0.499l1.846,0.426z" fill="#f4ea0b"></path><path d="M28.62,18.243l-0.115,0.462l1.844,0.426l0.125,-0.498z" fill="#e1e214"></path><path d="M26.775,17.854l-0.107,0.426l1.836,0.424l0.116,-0.461z" fill="#ccdb1d"></path><path d="M28.504,18.704l0.001,0.001l0.115,-0.462v0z" fill="#ccdb1d"></path><path d="M26.766,17.852l-1.846,-0.388l-0.097,0.389l1.836,0.425z" fill="#a5cb2e"></path><path d="M26.766,17.852l-0.107,0.426l0.009,0.002l0.107,-0.426z" fill="#a5cb2e"></path><path d="M23.065,17.073l-0.089,0.353l1.84,0.425l0.098,-0.388z" fill="#86bf3c"></path><path d="M23.059,17.072l-1.849,-0.389l-0.079,0.316l1.84,0.426z" fill="#62b14c"></path><path d="M22.971,17.425l0.005,0.001l0.089,-0.353l-0.006,-0.001z" fill="#62b14c"></path><path d="M19.353,16.292l-0.07,0.279l1.845,0.427l0.079,-0.316z" fill="#43a55a"></path><path d="M17.496,15.901l-0.061,0.243l1.845,0.427l0.07,-0.279z" fill="#008b78"></path></g><g><path d="M14.877,22.813l-0.227,-0.158l-0.001,0.002l0.226,0.158z" fill="#f4ea0b"></path><path d="M20.4,15.124l-0.367,-0.256l-0.004,0.004l0.367,0.257z" fill="#f4ea0b"></path><path d="M17.087,19.736l-0.283,-0.198l-0.003,0.006l0.283,0.197z" fill="#f4ea0b"></path><path d="M27.666,5.007c0.001,-0.001 0.004,-0.006 0.004,-0.007c0.105,-0.154 0.065,-0.363 -0.091,-0.466c-0.059,-0.038 -0.123,-0.058 -0.188,-0.058c-0.108,0 -0.214,0.053 -0.281,0.151l-6.001,8.683l0.395,0.276z" fill="#f4ea0b"></path><path d="M12.494,25.775l-5.469,7.913c-0.004,0.008 -0.004,0.02 0.004,0.023c0.009,0.006 0.02,0.005 0.023,-0.003l5.613,-7.815z" fill="#008b78"></path><path d="M13.771,24.354l-0.199,-0.139l-0.002,0.002l0.199,0.139z" fill="#f4ea0b"></path><path d="M21.505,13.586l-0.396,-0.276l-1.076,1.558l0.367,0.256z" fill="#f4ea0b"></path><path d="M19.292,16.667l1.104,-1.538l-0.367,-0.257l-1.076,1.558z" fill="#e1e214"></path><path d="M19.292,16.667l-0.339,-0.237l-1.072,1.55l0.311,0.218z" fill="#ccdb1d"></path><path d="M19.292,16.667l-0.339,-0.237v0z" fill="#ccdb1d"></path><path d="M18.187,18.205l-0.311,-0.217l-1.072,1.55l0.283,0.198z" fill="#a5cb2e"></path><rect x="-4.53815" y="24.95035" transform="rotate(-55.132)" width="0.009" height="0.379" fill="#a5cb2e"></rect><path d="M15.982,21.275l1.102,-1.534l-0.283,-0.197l-1.074,1.553z" fill="#86bf3c"></path><path d="M15.979,21.279l-0.255,-0.178l-1.074,1.554l0.227,0.158z" fill="#62b14c"></path><path d="M15.727,21.097l-0.003,0.004l0.255,0.178l0.003,-0.004z" fill="#62b14c"></path><path d="M14.875,22.815l-0.226,-0.158l-1.077,1.558l0.199,0.139z" fill="#43a55a"></path><path d="M13.769,24.356l-0.199,-0.139l-1.076,1.558l0.17,0.119z" fill="#008b78"></path></g><g><path d="M20.843,16.973l0.455,0.347l0.003,-0.005l-0.454,-0.346z" fill="#f4ea0b"></path><path d="M17.293,21.407l0.338,0.257l0.004,-0.005l-0.338,-0.257z" fill="#f4ea0b"></path><path d="M13.742,25.843l0.219,0.168l0.002,-0.002l-0.22,-0.168z" fill="#f4ea0b"></path><path d="M8.78,32.041c-0.01,0.016 -0.01,0.037 0.005,0.051c0.017,0.011 0.036,0.01 0.049,-0.006l3.905,-4.626l-0.181,-0.138z" fill="#008b78"></path><path d="M28.009,9.368c0.002,-0.002 0.003,-0.006 0.003,-0.008c0.148,-0.181 0.117,-0.446 -0.065,-0.591c-0.077,-0.062 -0.17,-0.092 -0.261,-0.092c-0.123,0 -0.246,0.053 -0.327,0.158l-5.328,6.655l0.494,0.377z" fill="#f4ea0b"></path><path d="M14.927,24.362l0.259,0.198l0.002,-0.002l-0.259,-0.198z" fill="#f4ea0b"></path><path d="M22.031,15.49l-1.184,1.479l0.454,0.346l1.223,-1.449z" fill="#f4ea0b"></path><path d="M19.66,18.451l0.415,0.317l1.223,-1.448l-0.455,-0.347z" fill="#e1e214"></path><path d="M18.481,19.923l0.377,0.287l1.217,-1.441l-0.416,-0.317z" fill="#ccdb1d"></path><path d="M20.075,18.769v-0.001l-0.415,-0.317l-0.001,0.001z" fill="#ccdb1d"></path><path d="M18.476,19.93l-1.179,1.472l0.338,0.257l1.217,-1.442z" fill="#a5cb2e"></path><path d="M18.476,19.93l0.376,0.287l0.006,-0.007l-0.377,-0.287z" fill="#a5cb2e"></path><path d="M16.113,22.881l0.298,0.228l1.22,-1.445l-0.338,-0.257z" fill="#86bf3c"></path><path d="M16.11,22.886l-1.181,1.474l0.259,0.198l1.22,-1.445z" fill="#62b14c"></path><path d="M16.408,23.113l0.003,-0.004l-0.298,-0.228l-0.003,0.005z" fill="#62b14c"></path><path d="M13.743,25.841l0.22,0.168l1.223,-1.449l-0.259,-0.198z" fill="#43a55a"></path><path d="M12.558,27.322l0.18,0.138l1.223,-1.449l-0.219,-0.168z" fill="#008b78"></path></g><g><path d="M12.912,25.893l-6.637,9.042c-0.016,0.021 -0.009,0.051 0.011,0.065c0.022,0.015 0.051,0.01 0.067,-0.01l6.882,-8.88z" fill="#008b78"></path><path d="M15.73,22.891l-0.411,-0.278l-0.001,0.003l0.41,0.277z" fill="#f4ea0b"></path><path d="M18.223,19.674l-0.499,-0.337l-0.004,0.005l0.499,0.337z" fill="#f4ea0b"></path><path d="M21.959,14.853l-0.631,-0.426l-0.004,0.005l0.631,0.426z" fill="#f4ea0b"></path><path d="M30.449,3.898l0.008,-0.012c0.18,-0.254 0.12,-0.604 -0.134,-0.783c-0.099,-0.069 -0.212,-0.103 -0.325,-0.103c-0.175,0 -0.348,0.082 -0.457,0.237l-7.011,9.553l0.675,0.456z" fill="#f4ea0b"></path><path d="M14.482,24.501l-0.366,-0.248l-0.002,0.003l0.366,0.247z" fill="#f4ea0b"></path><path d="M23.205,13.245l-0.675,-0.455l-1.202,1.637l0.631,0.426z" fill="#f4ea0b"></path><path d="M20.709,16.466l1.246,-1.608l-0.631,-0.426l-1.202,1.637z" fill="#e1e214"></path><path d="M20.709,16.466l-0.587,-0.396l-1.196,1.629l0.543,0.367z" fill="#ccdb1d"></path><path d="M20.709,16.466l-0.587,-0.397v0.001z" fill="#ccdb1d"></path><path d="M19.463,18.074l-0.543,-0.367l-1.196,1.63l0.499,0.337z" fill="#a5cb2e"></path><path d="M18.926,17.699l-0.006,0.008l0.543,0.367l0.006,-0.008z" fill="#a5cb2e"></path><path d="M16.976,21.283l1.243,-1.604l-0.499,-0.337l-1.199,1.633z" fill="#86bf3c"></path><path d="M16.973,21.287l-0.455,-0.307l-1.199,1.633l0.411,0.278z" fill="#62b14c"></path><path d="M16.521,20.975l-0.003,0.005l0.455,0.307l0.003,-0.004z" fill="#62b14c"></path><path d="M15.728,22.893l-0.41,-0.277l-1.202,1.637l0.366,0.248z" fill="#43a55a"></path><path d="M14.48,24.503l-0.366,-0.247l-1.202,1.637l0.322,0.218z" fill="#008b78"></path></g><g><path d="M21.477,32.773l-0.405,0.297l0.001,0.003l0.406,-0.298z" fill="#f4ea0b"></path><path d="M14.287,23.955l-0.58,0.426l0.003,0.004l0.581,-0.426z" fill="#f4ea0b"></path><path d="M20.277,31.301l-0.435,0.319l0.002,0.002l0.435,-0.319z" fill="#f4ea0b"></path><path d="M28.607,41.961c0.05,0.058 0.136,0.066 0.194,0.018c0.063,-0.05 0.073,-0.139 0.022,-0.198l-6.145,-7.536l-0.377,0.276z" fill="#008b78"></path><path d="M17.88,28.361l-0.493,0.362l0.004,0.005l0.493,-0.362z" fill="#f4ea0b"></path><path d="M10.225,18.973c0,0 -0.004,-0.004 -0.004,-0.006c-0.083,-0.097 -0.201,-0.148 -0.32,-0.148c-0.098,0 -0.195,0.033 -0.274,0.102c-0.177,0.147 -0.198,0.414 -0.046,0.591l2.899,3.42l0.61,-0.447z" fill="#f4ea0b"></path><path d="M13.089,22.485l-0.61,0.447l1.228,1.449l0.58,-0.426z" fill="#f4ea0b"></path><path d="M15.489,25.429l-1.198,-1.47l-0.581,0.426l1.228,1.448z" fill="#e1e214"></path><path d="M15.489,25.429l-0.551,0.404l1.221,1.441l0.523,-0.383z" fill="#ccdb1d"></path><path d="M15.489,25.429l-0.551,0.404v0z" fill="#ccdb1d"></path><path d="M16.687,26.898l-0.522,0.383l1.222,1.442l0.493,-0.362z" fill="#a5cb2e"></path><path d="M16.159,27.274l0.006,0.007l0.522,-0.383l-0.005,-0.007z" fill="#a5cb2e"></path><path d="M19.079,29.831l-1.195,-1.465l-0.493,0.362l1.224,1.444z" fill="#86bf3c"></path><path d="M19.082,29.836l-0.464,0.34l1.224,1.444l0.435,-0.319z" fill="#62b14c"></path><path d="M18.615,30.172l0.003,0.004l0.464,-0.34l-0.003,-0.005z" fill="#62b14c"></path><path d="M20.279,31.303l-0.435,0.319l1.228,1.448l0.405,-0.297z" fill="#43a55a"></path><path d="M22.678,34.245l-1.199,-1.47l-0.406,0.298l1.228,1.448z" fill="#008b78"></path></g><g><path d="M15.084,22.09l-0.966,0.614l0.004,0.004l0.966,-0.613z" fill="#f4ea0b"></path><path d="M20.822,29.66l-0.692,0.44l0.002,0.002l0.692,-0.44z" fill="#f4ea0b"></path><path d="M21.972,31.177l-0.637,0.404l0.001,0.003l0.638,-0.405z" fill="#f4ea0b"></path><path d="M8.396,13.268c-0.004,-0.008 -0.013,-0.016 -0.017,-0.021c-0.148,-0.185 -0.366,-0.28 -0.586,-0.28c-0.167,0 -0.337,0.055 -0.475,0.17c-0.326,0.262 -0.376,0.738 -0.112,1.065l5.709,7.023l1.021,-0.648z" fill="#f4ea0b"></path><path d="M30.841,43.276c0.044,0.05 0.117,0.059 0.168,0.019c0.053,-0.039 0.061,-0.114 0.023,-0.167l-7.911,-10.436l-0.582,0.37z" fill="#008b78"></path><path d="M18.526,26.631l-0.802,0.509l0.004,0.005l0.802,-0.509z" fill="#f4ea0b"></path><path d="M13.936,20.576l-1.021,0.648l1.203,1.48l0.966,-0.614z" fill="#f4ea0b"></path><path d="M16.235,23.609l-1.147,-1.514l-0.966,0.613l1.202,1.479z" fill="#e1e214"></path><path d="M16.236,23.609l-0.912,0.579l1.197,1.472l0.857,-0.544z" fill="#ccdb1d"></path><path d="M16.235,23.609l-0.911,0.578v0.001l0.912,-0.579z" fill="#ccdb1d"></path><path d="M17.383,25.124l-0.856,0.543l1.197,1.473l0.802,-0.509z" fill="#a5cb2e"></path><path d="M16.521,25.66l0.006,0.007l0.856,-0.543l-0.005,-0.008z" fill="#a5cb2e"></path><path d="M19.674,28.146l-1.144,-1.51l-0.802,0.509l1.199,1.475z" fill="#86bf3c"></path><path d="M19.678,28.15l-0.747,0.474l1.199,1.476l0.692,-0.44z" fill="#62b14c"></path><path d="M18.927,28.62l0.004,0.004l0.747,-0.474l-0.004,-0.004z" fill="#62b14c"></path><path d="M20.824,29.662l-0.692,0.44l1.203,1.479l0.637,-0.404z" fill="#43a55a"></path><path d="M23.122,32.694l-1.148,-1.515l-0.638,0.405l1.203,1.479z" fill="#008b78"></path></g><g><path d="M26.356,27.936c0,-0.002 0.004,-0.002 0.008,-0.005c0.139,-0.063 0.203,-0.228 0.139,-0.369c-0.047,-0.105 -0.148,-0.165 -0.255,-0.165c-0.039,0 -0.079,0.007 -0.116,0.024l-3.634,1.636l0.195,0.426z" fill="#f4ea0b"></path><path d="M12.071,33.751l0.083,0.183l0.002,-0.001l-0.083,-0.183z" fill="#f4ea0b"></path><path d="M21.008,29.727l-0.004,0.002l0.179,0.392l0.005,-0.002z" fill="#f4ea0b"></path><path d="M13.562,33.08l0.1,0.217l0.002,-0.001l-0.1,-0.217z" fill="#f4ea0b"></path><path d="M16.538,31.74l0.132,0.287l0.005,-0.002l-0.132,-0.287z" fill="#f4ea0b"></path><path d="M6.072,36.452c-0.011,0.004 -0.019,0.018 -0.011,0.031c0.004,0.011 0.016,0.017 0.032,0.011l4.555,-1.924l-0.068,-0.148z" fill="#008b78"></path><path d="M22.693,29.483l-0.196,-0.426l-1.489,0.67l0.18,0.392z" fill="#f4ea0b"></path><path d="M19.515,30.4l0.163,0.356l1.505,-0.635l-0.179,-0.392z" fill="#e1e214"></path><path d="M18.033,31.067l0.147,0.322l1.498,-0.633l-0.164,-0.356z" fill="#ccdb1d"></path><path d="M19.678,30.756v0l-0.163,-0.356h-0.001z" fill="#ccdb1d"></path><path d="M18.025,31.07l-1.482,0.668l0.132,0.287l1.498,-0.633z" fill="#a5cb2e"></path><path d="M18.025,31.07l0.148,0.322l0.007,-0.003l-0.147,-0.322z" fill="#a5cb2e"></path><path d="M15.053,32.408l0.116,0.253l1.501,-0.634l-0.132,-0.287z" fill="#86bf3c"></path><path d="M15.049,32.41l-1.485,0.669l0.1,0.217l1.501,-0.634z" fill="#62b14c"></path><path d="M15.165,32.662l0.004,-0.001l-0.116,-0.253l-0.004,0.002z" fill="#62b14c"></path><path d="M12.073,33.75l0.083,0.183l1.506,-0.636l-0.1,-0.217z" fill="#43a55a"></path><path d="M10.581,34.422l0.068,0.148l1.505,-0.636l-0.083,-0.183z" fill="#008b78"></path></g><g><path d="M16.373,32.512l0.382,0.968l0.007,-0.003l-0.382,-0.968z" fill="#26a69a"></path><path d="M4.681,37.149c-0.023,0.01 -0.036,0.033 -0.027,0.058c0.007,0.025 0.034,0.038 0.057,0.032l9.502,-2.966l-0.308,-0.782z" fill="#008b78"></path><path d="M42.919,23.611c-0.234,-0.595 -0.804,-0.957 -1.404,-0.957c-0.186,0 -0.375,0.033 -0.558,0.107l-7.34,2.911l0.893,2.266l7.454,-2.327c0.039,-0.012 0.074,-0.023 0.107,-0.038c0.776,-0.308 1.159,-1.188 0.848,-1.962z" fill="#f4ea0b"></path><path d="M31.163,26.645l0.82,2.081l2.526,-0.788l-0.892,-2.266z" fill="#f4ea0b"></path><path d="M28.709,27.618l0.748,1.897l2.51,-0.783l-0.82,-2.081z" fill="#e1e214"></path><path d="M31.967,28.732l0.016,-0.006l-0.82,-2.081l-0.016,0.006z" fill="#e1e214"></path><path d="M27.124,28.247l-0.88,0.349l0.675,1.711l1.068,-0.333l1.453,-0.454l-0.746,-1.895z" fill="#ccdb1d"></path><path d="M28.694,27.625l0.746,1.895l0.017,-0.005l-0.748,-1.897z" fill="#ccdb1d"></path><path d="M25.587,28.857l-1.808,0.717l0.602,1.525l2.09,-0.652l0.443,-0.138l-0.674,-1.711z" fill="#a5cb2e"></path><path d="M26.24,28.598l0.674,1.711l0.005,-0.002l-0.675,-1.711z" fill="#a5cb2e"></path><path d="M23.493,29.688l-2.178,0.864l0.527,1.34l2.451,-0.765l0.083,-0.026l-0.601,-1.525z" fill="#86bf3c"></path><path d="M23.775,29.576l0.601,1.525l0.005,-0.002l-0.602,-1.525z" fill="#86bf3c"></path><path d="M18.85,31.529l0.454,1.155l2.534,-0.791l-0.528,-1.34z" fill="#62b14c"></path><path d="M21.31,30.553l0.528,1.34l0.004,-0.001l-0.527,-1.34z" fill="#62b14c"></path><path d="M18.602,32.903l0.698,-0.218l-0.455,-1.154l-0.915,0.363l-0.791,0.314l-0.759,0.301l0.382,0.968l1.012,-0.316z" fill="#43a55a"></path><path d="M18.845,31.531l0.455,1.154l0.004,-0.001l-0.454,-1.155z" fill="#43a55a"></path><path d="M15.729,32.767l-1.825,0.724l0.308,0.782l2.057,-0.642l0.486,-0.151l-0.382,-0.968z" fill="#008b78"></path></g></g></g><g fill="#68bbbb" fill-rule="nonzero" stroke="none" stroke-width="1" stroke-linecap="butt" stroke-linejoin="miter" stroke-miterlimit="10" stroke-dasharray="" stroke-dashoffset="0" font-family="none" font-weight="none" font-size="none" text-anchor="none" style="mix-blend-mode: normal"><g><path d="M19.10301,247.46667l3.33,-5.97h1.79c0,0.45333 -0.01333,1 -0.04,1.64c-0.03333,0.64 -0.09333,1.32333 -0.18,2.05c-0.08,0.72667 -0.17667,1.44333 -0.29,2.15c-0.11333,0.71333 -0.24333,1.35333 -0.39,1.92v0c-0.59333,0.31333 -1.25333,0.57667 -1.98,0.79c-0.72667,0.21333 -1.46,0.39 -2.2,0.53c-0.74,0.14667 -1.45,0.24667 -2.13,0.3c-0.68667,0.06 -1.28333,0.09 -1.79,0.09v0c-2.62,0 -4.82667,-0.35667 -6.62,-1.07c-1.79333,-0.70667 -3.25667,-1.63 -4.39,-2.77c-1.14,-1.14 -1.96,-2.42 -2.46,-3.84c-0.49333,-1.42 -0.74,-2.85667 -0.74,-4.31v0c0,-2.81333 0.41,-5.38 1.23,-7.7c0.82667,-2.32 2.03,-4.31333 3.61,-5.98c1.58,-1.66 3.51333,-2.94667 5.8,-3.86c2.29333,-0.90667 4.89,-1.36 7.79,-1.36v0c1.88,0 3.56667,0.13333 5.06,0.4c1.49333,0.27333 2.70667,0.63667 3.64,1.09v0c-0.08,0.45333 -0.22,1.03667 -0.42,1.75c-0.2,0.71333 -0.43,1.46 -0.69,2.24c-0.25333,0.78 -0.52333,1.54667 -0.81,2.3c-0.28,0.76 -0.55,1.39333 -0.81,1.9v0h-1.79l-0.98,-6.44c-0.25333,-0.14 -0.68,-0.25333 -1.28,-0.34c-0.6,-0.08667 -1.19667,-0.13 -1.79,-0.13v0c-1.65333,0 -3.17,0.4 -4.55,1.2c-1.38,0.79333 -2.57333,1.91667 -3.58,3.37c-1.01333,1.44667 -1.79667,3.20333 -2.35,5.27c-0.55333,2.06 -0.83,4.35667 -0.83,6.89v0c0,1.59333 0.22667,2.93667 0.68,4.03c0.46,1.09333 1.05,1.98333 1.77,2.67c0.72667,0.68 1.52333,1.17 2.39,1.47c0.86667,0.3 1.71333,0.45 2.54,0.45v0c0.82667,0 1.54,-0.08 2.14,-0.24c0.59333,-0.15333 1.03333,-0.31667 1.32,-0.49zM27.16301,242.25667v0c0,-1.53333 0.25667,-3.10333 0.77,-4.71c0.51333,-1.60667 1.29667,-3.07 2.35,-4.39c1.05333,-1.32667 2.38333,-2.41667 3.99,-3.27c1.60667,-0.85333 3.49,-1.28 5.65,-1.28v0c2.56,0 4.56667,0.69667 6.02,2.09c1.44667,1.39333 2.17,3.47 2.17,6.23v0c0,1.88 -0.28333,3.66667 -0.85,5.36c-0.57333,1.68667 -1.4,3.18 -2.48,4.48c-1.08,1.29333 -2.39333,2.31667 -3.94,3.07c-1.55333,0.75333 -3.32667,1.13 -5.32,1.13v0c-1.19333,0 -2.3,-0.17667 -3.32,-0.53c-1.02667,-0.36 -1.91667,-0.90333 -2.67,-1.63c-0.75333,-0.72 -1.33667,-1.62333 -1.75,-2.71c-0.41333,-1.08 -0.62,-2.36 -0.62,-3.84zM39.19301,231.03667v0c-1.13333,0 -2.07667,0.42667 -2.83,1.28c-0.75333,0.85333 -1.36667,1.92667 -1.84,3.22c-0.46667,1.3 -0.8,2.70333 -1,4.21c-0.2,1.50667 -0.3,2.9 -0.3,4.18v0c0,1.44667 0.27667,2.57667 0.83,3.39c0.55333,0.81333 1.31667,1.22 2.29,1.22v0c0.82,0 1.58,-0.35 2.28,-1.05c0.69333,-0.69333 1.29667,-1.63 1.81,-2.81c0.51333,-1.18667 0.91333,-2.54 1.2,-4.06c0.28,-1.52 0.42,-3.10667 0.42,-4.76v0c0,-1.56 -0.24667,-2.75333 -0.74,-3.58c-0.5,-0.82667 -1.20667,-1.24 -2.12,-1.24zM51.23301,245.41667l4.65,-23.51l-2.9,-0.55v-1.45c0.39333,-0.17333 0.93333,-0.34333 1.62,-0.51c0.68,-0.17333 1.42,-0.34 2.22,-0.5c0.79333,-0.15333 1.61,-0.28 2.45,-0.38c0.84,-0.1 1.61333,-0.15 2.32,-0.15v0l0.86,0.47l-5.59,28.67h3.03v1.45c-0.28667,0.22667 -0.67,0.45667 -1.15,0.69c-0.48667,0.22667 -1.02,0.42333 -1.6,0.59c-0.58667,0.17333 -1.19333,0.31667 -1.82,0.43c-0.62667,0.11333 -1.22333,0.17 -1.79,0.17v0c-0.96667,0 -1.67,-0.20667 -2.11,-0.62c-0.44,-0.41333 -0.66,-0.86 -0.66,-1.34v0c0,-0.57333 0.04,-1.13 0.12,-1.67c0.08667,-0.54 0.20333,-1.13667 0.35,-1.79zM71.28301,247.55667v0c0.6,0 1.19,-0.25 1.77,-0.75c0.58,-0.5 1.13333,-1.12 1.66,-1.86c0.52667,-0.74 1.01,-1.53667 1.45,-2.39c0.44667,-0.85333 0.82667,-1.63333 1.14,-2.34v0l1.53,-8.41c-0.36667,-0.22667 -0.71333,-0.39 -1.04,-0.49c-0.32667,-0.1 -0.72,-0.15 -1.18,-0.15v0c-1.08,0 -2.06667,0.36333 -2.96,1.09c-0.9,0.72667 -1.66333,1.68 -2.29,2.86c-0.62,1.18 -1.10333,2.53 -1.45,4.05c-0.34,1.52 -0.51,3.07667 -0.51,4.67v0c0,2.48 0.62667,3.72 1.88,3.72zM76.78301,243.66667h-0.17c-0.42667,1 -0.93,1.94 -1.51,2.82c-0.58667,0.88 -1.22667,1.64667 -1.92,2.3c-0.7,0.65333 -1.46,1.18 -2.28,1.58c-0.82667,0.4 -1.69667,0.6 -2.61,0.6v0c-1.44667,0 -2.63333,-0.55667 -3.56,-1.67c-0.92667,-1.10667 -1.39,-2.78333 -1.39,-5.03v0c0,-2.02 0.28,-3.96 0.84,-5.82c0.55333,-1.86667 1.36333,-3.51667 2.43,-4.95c1.06667,-1.44 2.37333,-2.59333 3.92,-3.46c1.55333,-0.86667 3.32333,-1.3 5.31,-1.3v0c0.94,0 1.63,0.05667 2.07,0.17c0.44667,0.11333 0.91,0.28333 1.39,0.51v0l1.45,-7.51l-2.94,-0.55v-1.45c0.42667,-0.17333 1.01,-0.34333 1.75,-0.51c0.74,-0.17333 1.52667,-0.33 2.36,-0.47c0.84,-0.14667 1.66667,-0.27 2.48,-0.37c0.81333,-0.1 1.47333,-0.16333 1.98,-0.19v0l0.86,0.47l-5.51,28.67h3.07v1.45c-0.28,0.22667 -0.65667,0.45667 -1.13,0.69c-0.46667,0.22667 -0.97667,0.42333 -1.53,0.59c-0.55333,0.17333 -1.13,0.31667 -1.73,0.43c-0.6,0.11333 -1.15333,0.17 -1.66,0.17v0c-1,0 -1.71333,-0.22667 -2.14,-0.68c-0.42667,-0.45333 -0.64,-0.92333 -0.64,-1.41v0c0,-0.48667 0.07333,-1.18333 0.22,-2.09c0.14,-0.91333 0.33667,-1.91 0.59,-2.99zM91.97301,240.63667l0.43,6.28c0.28667,0.28 0.8,0.56333 1.54,0.85c0.73333,0.28667 1.51333,0.43 2.34,0.43v0c0.88,0 1.70667,-0.08 2.48,-0.24c0.76667,-0.15333 1.42667,-0.40333 1.98,-0.75c0.55333,-0.34 0.98667,-0.78667 1.3,-1.34c0.31333,-0.55333 0.47,-1.23 0.47,-2.03v0c0,-1.02 -0.27,-1.89333 -0.81,-2.62c-0.54,-0.72667 -1.20667,-1.38667 -2,-1.98c-0.8,-0.6 -1.67667,-1.19333 -2.63,-1.78c-0.95333,-0.58 -1.82667,-1.24 -2.62,-1.98c-0.8,-0.74 -1.47,-1.60667 -2.01,-2.6c-0.54,-1 -0.81,-2.22333 -0.81,-3.67v0c0,-1.50667 0.3,-2.83 0.9,-3.97c0.59333,-1.14 1.41667,-2.09333 2.47,-2.86c1.05333,-0.76667 2.30667,-1.34333 3.76,-1.73c1.44667,-0.38 3.04,-0.57 4.78,-0.57v0c1.73333,0 3.31667,0.12 4.75,0.36c1.44,0.24 2.7,0.61667 3.78,1.13v0c-0.14,0.56667 -0.32667,1.22 -0.56,1.96c-0.22667,0.74 -0.47333,1.47333 -0.74,2.2c-0.27333,0.72667 -0.54333,1.41 -0.81,2.05c-0.27333,0.64 -0.51,1.17333 -0.71,1.6v0h-1.75l-0.72,-5.85c-0.4,-0.22667 -0.93333,-0.39667 -1.6,-0.51c-0.66667,-0.11333 -1.35667,-0.17 -2.07,-0.17v0c-0.74,0 -1.43,0.08 -2.07,0.24c-0.64,0.15333 -1.19333,0.39333 -1.66,0.72c-0.47333,0.32667 -0.85333,0.74667 -1.14,1.26c-0.28,0.51333 -0.42,1.12333 -0.42,1.83v0c0,1 0.27667,1.87 0.83,2.61c0.55333,0.74 1.23667,1.41333 2.05,2.02c0.80667,0.61333 1.69333,1.22667 2.66,1.84c0.97333,0.61333 1.86333,1.29667 2.67,2.05c0.81333,0.75333 1.49667,1.62667 2.05,2.62c0.55333,0.99333 0.83,2.18667 0.83,3.58v0c0,3.02 -1.11667,5.33333 -3.35,6.94c-2.23333,1.60667 -5.42667,2.41 -9.58,2.41v0c-0.90667,0 -1.82333,-0.05667 -2.75,-0.17c-0.92667,-0.11333 -1.8,-0.27 -2.62,-0.47c-0.82667,-0.2 -1.55333,-0.41333 -2.18,-0.64c-0.62667,-0.22667 -1.08,-0.47 -1.36,-0.73v0c0.16667,-0.68 0.38,-1.39667 0.64,-2.15c0.25333,-0.75333 0.52333,-1.50667 0.81,-2.26c0.28,-0.75333 0.57,-1.46667 0.87,-2.14c0.3,-0.66667 0.57667,-1.25667 0.83,-1.77v0zM112.07301,231.80667v-1.66c0.54,-0.34 1.13667,-0.63333 1.79,-0.88c0.65333,-0.24 1.29333,-0.43 1.92,-0.57v0l0.68,-3.25c0.2,-0.16667 0.51333,-0.33 0.94,-0.49c0.42667,-0.15333 0.89667,-0.29333 1.41,-0.42c0.51333,-0.13333 1.03333,-0.25667 1.56,-0.37c0.52667,-0.11333 1.00333,-0.19667 1.43,-0.25v0l0.89,0.51l-1.02,4.69h4.99c0.06,0.34667 0.04,0.79667 -0.06,1.35c-0.1,0.55333 -0.26333,1 -0.49,1.34v0h-5l-2.47,11.05c-0.11333,0.54 -0.2,1.01667 -0.26,1.43c-0.05333,0.41333 -0.08,0.79 -0.08,1.13v0c0,0.74 0.18333,1.28 0.55,1.62c0.37333,0.34667 0.87333,0.52 1.5,0.52v0c0.70667,0 1.37333,-0.08667 2,-0.26c0.62667,-0.17333 1.22333,-0.41667 1.79,-0.73v0l0.56,1.11c-0.34,0.37333 -0.79667,0.75 -1.37,1.13c-0.56667,0.38667 -1.20667,0.74333 -1.92,1.07c-0.70667,0.32667 -1.47333,0.59 -2.3,0.79c-0.82667,0.2 -1.66667,0.3 -2.52,0.3v0c-1.48,0 -2.59,-0.34333 -3.33,-1.03c-0.74,-0.68 -1.11,-1.61667 -1.11,-2.81v0c0,-0.65333 0.05667,-1.35 0.17,-2.09c0.12,-0.74 0.23667,-1.36667 0.35,-1.88v0l2.47,-11.35zM134.98301,247.55667v0c0.54,0 1.10333,-0.24333 1.69,-0.73c0.58,-0.48667 1.13333,-1.09 1.66,-1.81c0.52667,-0.72667 1.01,-1.52333 1.45,-2.39c0.44,-0.86667 0.81667,-1.67 1.13,-2.41v0l1.58,-8.45c-0.34,-0.22667 -0.66,-0.39 -0.96,-0.49c-0.3,-0.1 -0.69,-0.15 -1.17,-0.15v0c-1.14,0 -2.16667,0.37667 -3.08,1.13c-0.90667,0.75333 -1.67333,1.73333 -2.3,2.94c-0.62667,1.21333 -1.10333,2.57333 -1.43,4.08c-0.32667,1.50667 -0.49,3.01333 -0.49,4.52v0c0,1.30667 0.15667,2.26 0.47,2.86c0.31333,0.6 0.79667,0.9 1.45,0.9zM140.44301,243.66667h-0.17c-0.36667,0.91333 -0.83,1.80333 -1.39,2.67c-0.55333,0.86667 -1.18333,1.64 -1.89,2.32c-0.71333,0.68667 -1.49667,1.24333 -2.35,1.67c-0.85333,0.42667 -1.77667,0.64 -2.77,0.64v0c-1.48,0 -2.66333,-0.54 -3.55,-1.62c-0.88,-1.08 -1.32,-2.68667 -1.32,-4.82v0c0,-2.22 0.30667,-4.29 0.92,-6.21c0.61333,-1.92 1.48,-3.6 2.6,-5.04c1.12667,-1.43333 2.48667,-2.55667 4.08,-3.37c1.59333,-0.80667 3.37,-1.21 5.33,-1.21v0c0.74,0 1.37333,0.08333 1.9,0.25c0.52667,0.17333 1.08667,0.38667 1.68,0.64v0c0.74,-0.28 1.53667,-0.49333 2.39,-0.64c0.85333,-0.14 1.88,-0.21 3.08,-0.21v0l-3.59,18.77h2.99v1.45c-0.28667,0.22667 -0.66333,0.45667 -1.13,0.69c-0.47333,0.22667 -0.98667,0.42333 -1.54,0.59c-0.55333,0.17333 -1.12333,0.31667 -1.71,0.43c-0.58,0.11333 -1.12667,0.17 -1.64,0.17v0c-0.99333,0 -1.70333,-0.21333 -2.13,-0.64c-0.42667,-0.42667 -0.64,-0.86667 -0.64,-1.32v0c0,-0.51333 0.07,-1.19 0.21,-2.03c0.14667,-0.84 0.36,-1.9 0.64,-3.18zM166.98301,235.68667l-3.75,-2.51c-0.54,0.22667 -1.14667,0.73667 -1.82,1.53c-0.66667,0.8 -1.22667,1.81 -1.68,3.03v0l-2.73,12.72h-5.98l3.8,-18.31l-2.43,-0.55v-1.45c0.48,-0.22667 1.04,-0.43333 1.68,-0.62c0.64,-0.18667 1.32333,-0.34333 2.05,-0.47c0.72667,-0.12667 1.47333,-0.22667 2.24,-0.3c0.76667,-0.07333 1.50667,-0.12333 2.22,-0.15v0l0.85,0.51l-1.11,5.29h0.18c0.85333,-1.64667 1.83333,-3.02333 2.94,-4.13c1.10667,-1.11333 2.4,-1.67 3.88,-1.67v0c0.4,0 0.8,0.03667 1.2,0.11c0.39333,0.06667 0.76333,0.2 1.11,0.4v0c0.05333,0.6 0.00333,1.24667 -0.15,1.94c-0.16,0.7 -0.36667,1.36333 -0.62,1.99c-0.26,0.62667 -0.56,1.18 -0.9,1.66c-0.34,0.48667 -0.66667,0.81333 -0.98,0.98z"></path></g></g></g></svg>